<mxfile host="app.diagrams.net" modified="2021-09-28T21:14:25.052Z" agent="5.0 (Windows NT 10.0; Win64; x64) AppleWebKit/537.36 (KHTML, like Gecko) Chrome/93.0.4577.82 Safari/537.36" etag="CEQI-lxi36g4ULs3fGck" version="15.3.6" type="github">
  <diagram id="p0Sswh1wCOy0EvHFWE1C" name="Page-1">
    <mxGraphModel dx="1662" dy="794" grid="1" gridSize="10" guides="1" tooltips="1" connect="1" arrows="1" fold="1" page="1" pageScale="1" pageWidth="827" pageHeight="1169" math="0" shadow="0">
      <root>
        <mxCell id="0" />
        <mxCell id="1" parent="0" />
        <mxCell id="cj-hPwlbrHodN3N8FsVO-4" value="&lt;font style=&quot;font-size: 16px&quot;&gt;Price Comparison System with E-commerce Web Scraping&lt;/font&gt;" style="shape=umlFrame;whiteSpace=wrap;html=1;hachureGap=4;pointerEvents=0;width=450;height=30;fontSize=16;" parent="1" vertex="1">
          <mxGeometry x="150" y="10" width="490" height="810" as="geometry" />
        </mxCell>
        <mxCell id="cj-hPwlbrHodN3N8FsVO-1" value="&lt;font style=&quot;font-size: 18px&quot;&gt;ผู้ใช้งานทั่วไป&lt;/font&gt;" style="shape=umlActor;verticalLabelPosition=bottom;verticalAlign=top;html=1;outlineConnect=0;hachureGap=4;pointerEvents=0;" parent="1" vertex="1">
          <mxGeometry x="55" y="110" width="30" height="60" as="geometry" />
        </mxCell>
        <mxCell id="cj-hPwlbrHodN3N8FsVO-3" value="&lt;font style=&quot;font-size: 18px ; font-weight: normal&quot;&gt;ระบบแสดงรายการสินค้า&lt;/font&gt;" style="shape=folder;fontStyle=1;spacingTop=10;tabWidth=40;tabHeight=14;tabPosition=left;html=1;hachureGap=4;pointerEvents=0;" parent="1" vertex="1">
          <mxGeometry x="220" y="110" width="225" height="90" as="geometry" />
        </mxCell>
        <mxCell id="Q_QUAt-K6iGTTHn7CNDI-12" value="" style="endArrow=none;html=1;startSize=14;endSize=14;sourcePerimeterSpacing=8;targetPerimeterSpacing=8;entryX=0;entryY=0;entryDx=0;entryDy=33;entryPerimeter=0;exitX=1;exitY=0.3333333333333333;exitDx=0;exitDy=0;exitPerimeter=0;" parent="1" source="cj-hPwlbrHodN3N8FsVO-1" target="cj-hPwlbrHodN3N8FsVO-3" edge="1">
          <mxGeometry width="50" height="50" relative="1" as="geometry">
            <mxPoint x="80" y="130" as="sourcePoint" />
            <mxPoint x="410" y="260" as="targetPoint" />
          </mxGeometry>
        </mxCell>
        <mxCell id="Q_QUAt-K6iGTTHn7CNDI-13" value="&lt;font style=&quot;font-size: 18px ; font-weight: normal&quot;&gt;ระบบคัดกรองสินค้า&lt;/font&gt;" style="shape=folder;fontStyle=1;spacingTop=10;tabWidth=40;tabHeight=14;tabPosition=left;html=1;hachureGap=4;pointerEvents=0;" parent="1" vertex="1">
          <mxGeometry x="220" y="210" width="225" height="90" as="geometry" />
        </mxCell>
        <mxCell id="Q_QUAt-K6iGTTHn7CNDI-14" value="&lt;font style=&quot;font-size: 18px ; font-weight: normal&quot;&gt;ระบบแสดงข้อมูล&lt;br&gt;โดยรวมสินค้าในรูปแบบ BI&lt;/font&gt;" style="shape=folder;fontStyle=1;spacingTop=10;tabWidth=40;tabHeight=14;tabPosition=left;html=1;hachureGap=4;pointerEvents=0;" parent="1" vertex="1">
          <mxGeometry x="220" y="330" width="225" height="100" as="geometry" />
        </mxCell>
        <mxCell id="Q_QUAt-K6iGTTHn7CNDI-15" value="" style="endArrow=none;html=1;startSize=14;endSize=14;sourcePerimeterSpacing=8;targetPerimeterSpacing=8;entryX=1;entryY=0.3333333333333333;entryDx=0;entryDy=0;entryPerimeter=0;exitX=0;exitY=0;exitDx=0;exitDy=52;exitPerimeter=0;" parent="1" source="Q_QUAt-K6iGTTHn7CNDI-13" target="cj-hPwlbrHodN3N8FsVO-1" edge="1">
          <mxGeometry width="50" height="50" relative="1" as="geometry">
            <mxPoint x="150" y="240" as="sourcePoint" />
            <mxPoint x="200" y="190" as="targetPoint" />
          </mxGeometry>
        </mxCell>
        <mxCell id="Q_QUAt-K6iGTTHn7CNDI-17" value="" style="endArrow=none;html=1;startSize=14;endSize=14;sourcePerimeterSpacing=8;targetPerimeterSpacing=8;entryX=1;entryY=0.3333333333333333;entryDx=0;entryDy=0;entryPerimeter=0;exitX=0;exitY=0;exitDx=0;exitDy=57;exitPerimeter=0;" parent="1" source="Q_QUAt-K6iGTTHn7CNDI-14" target="cj-hPwlbrHodN3N8FsVO-1" edge="1">
          <mxGeometry width="50" height="50" relative="1" as="geometry">
            <mxPoint x="90" y="280" as="sourcePoint" />
            <mxPoint x="140" y="230" as="targetPoint" />
          </mxGeometry>
        </mxCell>
        <mxCell id="Q_QUAt-K6iGTTHn7CNDI-33" value="" style="edgeStyle=none;curved=1;rounded=0;orthogonalLoop=1;jettySize=auto;html=1;endArrow=none;endFill=0;startSize=14;endSize=14;sourcePerimeterSpacing=8;targetPerimeterSpacing=8;strokeColor=default;startArrow=block;startFill=0;" parent="1" target="Q_QUAt-K6iGTTHn7CNDI-32" edge="1">
          <mxGeometry relative="1" as="geometry">
            <mxPoint x="785" y="220" as="sourcePoint" />
          </mxGeometry>
        </mxCell>
        <mxCell id="Q_QUAt-K6iGTTHn7CNDI-20" value="&lt;font style=&quot;font-size: 18px&quot;&gt;แหล่งข้อมูล&lt;/font&gt;" style="shape=umlActor;verticalLabelPosition=bottom;verticalAlign=top;html=1;hachureGap=4;pointerEvents=0;" parent="1" vertex="1">
          <mxGeometry x="770" y="140" width="30" height="60" as="geometry" />
        </mxCell>
        <mxCell id="Q_QUAt-K6iGTTHn7CNDI-32" value="&lt;font style=&quot;font-size: 16px&quot;&gt;Web Scraper&lt;/font&gt;" style="shape=umlActor;verticalLabelPosition=bottom;verticalAlign=top;html=1;hachureGap=4;pointerEvents=0;" parent="1" vertex="1">
          <mxGeometry x="770" y="420" width="30" height="60" as="geometry" />
        </mxCell>
        <mxCell id="Q_QUAt-K6iGTTHn7CNDI-34" value="&lt;font style=&quot;font-size: 18px ; font-weight: normal&quot;&gt;ระบบรวบรวมข้อมูลสินค้า&lt;/font&gt;" style="shape=folder;fontStyle=1;spacingTop=10;tabWidth=40;tabHeight=14;tabPosition=left;html=1;hachureGap=4;pointerEvents=0;" parent="1" vertex="1">
          <mxGeometry x="320" y="530" width="250" height="100" as="geometry" />
        </mxCell>
        <mxCell id="Q_QUAt-K6iGTTHn7CNDI-35" value="" style="endArrow=none;html=1;startSize=14;endSize=14;sourcePerimeterSpacing=8;targetPerimeterSpacing=8;strokeColor=default;entryX=0;entryY=0.3333333333333333;entryDx=0;entryDy=0;entryPerimeter=0;exitX=1.008;exitY=0.66;exitDx=0;exitDy=0;exitPerimeter=0;" parent="1" source="Q_QUAt-K6iGTTHn7CNDI-34" target="Q_QUAt-K6iGTTHn7CNDI-20" edge="1">
          <mxGeometry width="50" height="50" relative="1" as="geometry">
            <mxPoint x="630" y="280" as="sourcePoint" />
            <mxPoint x="660" y="170" as="targetPoint" />
          </mxGeometry>
        </mxCell>
        <mxCell id="Q_QUAt-K6iGTTHn7CNDI-40" value="" style="endArrow=none;dashed=1;html=1;startSize=14;endSize=14;sourcePerimeterSpacing=8;targetPerimeterSpacing=8;strokeColor=default;entryX=0.538;entryY=1;entryDx=0;entryDy=0;entryPerimeter=0;endFill=0;startArrow=open;startFill=0;exitX=0;exitY=0;exitDx=20;exitDy=0;exitPerimeter=0;" parent="1" source="Q_QUAt-K6iGTTHn7CNDI-34" target="Q_QUAt-K6iGTTHn7CNDI-14" edge="1">
          <mxGeometry width="50" height="50" relative="1" as="geometry">
            <mxPoint x="330" y="490" as="sourcePoint" />
            <mxPoint x="380" y="440" as="targetPoint" />
          </mxGeometry>
        </mxCell>
        <mxCell id="Q_QUAt-K6iGTTHn7CNDI-42" value="" style="endArrow=open;dashed=1;html=1;startSize=14;endSize=14;sourcePerimeterSpacing=8;targetPerimeterSpacing=8;strokeColor=default;exitX=0;exitY=0;exitDx=225;exitDy=52;exitPerimeter=0;entryX=0.64;entryY=0.15;entryDx=0;entryDy=0;entryPerimeter=0;startArrow=none;startFill=0;endFill=0;" parent="1" source="Q_QUAt-K6iGTTHn7CNDI-13" target="Q_QUAt-K6iGTTHn7CNDI-34" edge="1">
          <mxGeometry width="50" height="50" relative="1" as="geometry">
            <mxPoint x="460" y="280" as="sourcePoint" />
            <mxPoint x="510" y="230" as="targetPoint" />
            <Array as="points">
              <mxPoint x="480" y="262" />
            </Array>
          </mxGeometry>
        </mxCell>
        <mxCell id="Q_QUAt-K6iGTTHn7CNDI-43" value="" style="endArrow=none;dashed=1;html=1;startSize=14;endSize=14;sourcePerimeterSpacing=8;targetPerimeterSpacing=8;strokeColor=default;startArrow=open;startFill=0;entryX=0;entryY=0;entryDx=225;entryDy=52;entryPerimeter=0;exitX=0.924;exitY=0.15;exitDx=0;exitDy=0;exitPerimeter=0;" parent="1" source="Q_QUAt-K6iGTTHn7CNDI-34" target="cj-hPwlbrHodN3N8FsVO-3" edge="1">
          <mxGeometry width="50" height="50" relative="1" as="geometry">
            <mxPoint x="520" y="270" as="sourcePoint" />
            <mxPoint x="540" y="160" as="targetPoint" />
            <Array as="points">
              <mxPoint x="550" y="162" />
            </Array>
          </mxGeometry>
        </mxCell>
        <mxCell id="Q_QUAt-K6iGTTHn7CNDI-46" value="&lt;font style=&quot;font-size: 16px&quot;&gt;Dependency&lt;/font&gt;" style="shape=note2;boundedLbl=1;whiteSpace=wrap;html=1;size=25;verticalAlign=top;align=center;hachureGap=4;pointerEvents=0;" parent="1" vertex="1">
          <mxGeometry x="20" y="430" width="100" height="70" as="geometry" />
        </mxCell>
        <mxCell id="Q_QUAt-K6iGTTHn7CNDI-49" value="" style="endArrow=none;dashed=1;html=1;dashPattern=1 3;strokeWidth=2;startSize=14;endSize=14;sourcePerimeterSpacing=8;targetPerimeterSpacing=8;exitX=0;exitY=0;exitDx=100;exitDy=47.5;exitPerimeter=0;" parent="1" source="Q_QUAt-K6iGTTHn7CNDI-46" edge="1">
          <mxGeometry width="50" height="50" relative="1" as="geometry">
            <mxPoint x="150" y="485" as="sourcePoint" />
            <mxPoint x="340" y="490" as="targetPoint" />
          </mxGeometry>
        </mxCell>
        <mxCell id="Q_QUAt-K6iGTTHn7CNDI-50" value="" style="endArrow=none;dashed=1;html=1;dashPattern=1 3;strokeWidth=2;startSize=14;endSize=14;sourcePerimeterSpacing=8;targetPerimeterSpacing=8;exitX=0;exitY=0;exitDx=100;exitDy=47.5;exitPerimeter=0;" parent="1" source="Q_QUAt-K6iGTTHn7CNDI-46" edge="1">
          <mxGeometry width="50" height="50" relative="1" as="geometry">
            <mxPoint x="140" y="490" as="sourcePoint" />
            <mxPoint x="550" y="440" as="targetPoint" />
          </mxGeometry>
        </mxCell>
        <mxCell id="Q_QUAt-K6iGTTHn7CNDI-51" value="" style="endArrow=none;dashed=1;html=1;dashPattern=1 3;strokeWidth=2;startSize=14;endSize=14;sourcePerimeterSpacing=8;targetPerimeterSpacing=8;exitX=0;exitY=0;exitDx=100;exitDy=47.5;exitPerimeter=0;" parent="1" source="Q_QUAt-K6iGTTHn7CNDI-46" edge="1">
          <mxGeometry width="50" height="50" relative="1" as="geometry">
            <mxPoint x="160" y="480" as="sourcePoint" />
            <mxPoint x="480" y="475" as="targetPoint" />
          </mxGeometry>
        </mxCell>
        <mxCell id="Q_QUAt-K6iGTTHn7CNDI-53" value="&lt;font style=&quot;font-size: 18px&quot;&gt;กำหนดจัดการตัว Web Scraper&lt;/font&gt;" style="ellipse;whiteSpace=wrap;html=1;hachureGap=4;pointerEvents=0;" parent="1" vertex="1">
          <mxGeometry x="370" y="680" width="210" height="80" as="geometry" />
        </mxCell>
        <mxCell id="Q_QUAt-K6iGTTHn7CNDI-54" value="&lt;font style=&quot;font-size: 18px&quot;&gt;ผู้ดูแลระบบ&lt;/font&gt;" style="shape=umlActor;verticalLabelPosition=bottom;verticalAlign=top;html=1;outlineConnect=0;hachureGap=4;pointerEvents=0;" parent="1" vertex="1">
          <mxGeometry x="230" y="680" width="30" height="60" as="geometry" />
        </mxCell>
        <mxCell id="Q_QUAt-K6iGTTHn7CNDI-55" value="" style="endArrow=none;html=1;startSize=14;endSize=14;sourcePerimeterSpacing=8;targetPerimeterSpacing=8;strokeColor=default;exitX=1;exitY=0.3333333333333333;exitDx=0;exitDy=0;exitPerimeter=0;entryX=0;entryY=0.5;entryDx=0;entryDy=0;" parent="1" source="Q_QUAt-K6iGTTHn7CNDI-54" target="Q_QUAt-K6iGTTHn7CNDI-53" edge="1">
          <mxGeometry width="50" height="50" relative="1" as="geometry">
            <mxPoint x="260" y="720" as="sourcePoint" />
            <mxPoint x="310" y="670" as="targetPoint" />
          </mxGeometry>
        </mxCell>
        <mxCell id="Q_QUAt-K6iGTTHn7CNDI-56" value="" style="endArrow=none;html=1;startSize=14;endSize=14;sourcePerimeterSpacing=8;targetPerimeterSpacing=8;strokeColor=default;entryX=0;entryY=0.3333333333333333;entryDx=0;entryDy=0;entryPerimeter=0;exitX=1;exitY=0.5;exitDx=0;exitDy=0;" parent="1" source="Q_QUAt-K6iGTTHn7CNDI-53" target="Q_QUAt-K6iGTTHn7CNDI-32" edge="1">
          <mxGeometry width="50" height="50" relative="1" as="geometry">
            <mxPoint x="730" y="740" as="sourcePoint" />
            <mxPoint x="680" y="550" as="targetPoint" />
          </mxGeometry>
        </mxCell>
        <mxCell id="Q_QUAt-K6iGTTHn7CNDI-57" value="&lt;font style=&quot;font-size: 16px&quot;&gt;specializations&lt;/font&gt;" style="shape=note2;boundedLbl=1;whiteSpace=wrap;html=1;size=25;verticalAlign=top;align=center;hachureGap=4;pointerEvents=0;" parent="1" vertex="1">
          <mxGeometry x="840" y="290" width="120" height="60" as="geometry" />
        </mxCell>
        <mxCell id="Q_QUAt-K6iGTTHn7CNDI-64" value="&lt;font style=&quot;font-size: 16px&quot;&gt;E-Commerce websites&lt;/font&gt;" style="rounded=0;whiteSpace=wrap;html=1;hachureGap=4;pointerEvents=0;" parent="1" vertex="1">
          <mxGeometry x="730" y="610" width="110" height="50" as="geometry" />
        </mxCell>
        <mxCell id="Q_QUAt-K6iGTTHn7CNDI-67" value="" style="endArrow=none;dashed=1;html=1;dashPattern=1 3;strokeWidth=2;startSize=14;endSize=14;sourcePerimeterSpacing=8;targetPerimeterSpacing=8;entryX=0;entryY=0.5;entryDx=0;entryDy=0;entryPerimeter=0;" parent="1" target="Q_QUAt-K6iGTTHn7CNDI-57" edge="1">
          <mxGeometry width="50" height="50" relative="1" as="geometry">
            <mxPoint x="790" y="320" as="sourcePoint" />
            <mxPoint x="850" y="290" as="targetPoint" />
          </mxGeometry>
        </mxCell>
        <mxCell id="Q_QUAt-K6iGTTHn7CNDI-71" value="" style="endArrow=none;html=1;startSize=14;endSize=14;sourcePerimeterSpacing=8;targetPerimeterSpacing=8;strokeColor=default;exitX=0.5;exitY=0;exitDx=0;exitDy=0;" parent="1" source="Q_QUAt-K6iGTTHn7CNDI-64" edge="1">
          <mxGeometry width="50" height="50" relative="1" as="geometry">
            <mxPoint x="740" y="605" as="sourcePoint" />
            <mxPoint x="785" y="500" as="targetPoint" />
          </mxGeometry>
        </mxCell>
      </root>
    </mxGraphModel>
  </diagram>
</mxfile>
